<?xml version="1.0" encoding="UTF-8"?>
<svg id="Layer_2" data-name="Layer 2" xmlns="http://www.w3.org/2000/svg" xmlns:xlink="http://www.w3.org/1999/xlink" viewBox="0 0 2682.39 799.02">
  <defs>
    <style>
      .cls-1 {
        fill: #00393f;
      }

      .cls-2 {
        fill: url(#linear-gradient);
      }
    </style>
    <linearGradient id="linear-gradient" x1="466.85" y1="207.24" x2="296.7" y2="581.23" gradientUnits="userSpaceOnUse">
      <stop offset=".04" stop-color="#0bd3a1"/>
      <stop offset=".39" stop-color="#05bbaf"/>
      <stop offset=".74" stop-color="#01aaba"/>
      <stop offset="1" stop-color="#00a5be"/>
    </linearGradient>
  </defs>
  <path class="cls-2" d="M401.76,397.86c-2.26,0-4.33.92-5.81,2.41-1.48,1.48-2.4,3.54-2.4,5.81v6.24c0,4.54,3.68,8.22,8.22,8.22,2.26,0,4.33-.92,5.81-2.4,1.49-1.49,2.41-3.54,2.41-5.81v-6.24c0-4.55-3.69-8.23-8.23-8.23ZM357.5,397.86c-2.27,0-4.33.92-5.81,2.41-1.49,1.48-2.4,3.54-2.4,5.81v6.24c0,4.54,3.68,8.22,8.22,8.22,2.27,0,4.33-.92,5.81-2.4,1.49-1.49,2.4-3.54,2.4-5.81v-6.24c0-4.55-3.68-8.23-8.22-8.23ZM437.42,393.67c-.84-.17-1.52-.77-1.82-1.56-8.04-21.21-26.63-33.15-50.96-34.55v-6.83c0-1.61.5-3.2,1.56-4.41,1.39-1.58,2.23-3.68,2.23-5.96,0-4.94-3.93-8.95-8.77-8.95s-8.76,4.01-8.76,8.95c0,2.35.89,4.49,2.34,6.09,1.23,1.35,2,3.06,2,4.88v6.23c-23.15-.15-44.01,13.79-50.23,32.17-.67,1.95-2.17,3.46-4.07,4.27-.02,0-.04.02-.06.03-2.53,1.12-4.18,3.61-4.18,6.37v19.91c0,.93.18,1.87.66,2.67.87,1.46,2.27,2.43,3.51,3.04,1.6.79,2.87,2.17,3.55,3.83,6.57,16.12,23.28,25.64,55.25,25.47,47.26.54,54.56-23.58,55.5-28.04.09-.43.44-.77.88-.87.05-.02.09-.03.14-.04,4.29-1.12,7.21-5.09,7.21-9.52v-16.21c0-5.06-3.87-6.53-5.97-6.95ZM424.15,428.46c-7.33,12.28-24.13,17.1-41.01,16.74-19.46.23-32.73-1.41-42.1-9.96-3.55-3.23-6.07-7.42-7.55-11.98-3.02-9.34-2.35-18.76.79-28.74,2.87-9.12,9.28-16.79,17.89-20.96,13.32-6.47,28.71-5.8,28.71-5.8,21.49-.02,34.86,11.39,34.86,11.39,11.91,9.58,15.35,37.54,8.42,49.32ZM401.76,397.86c-2.26,0-4.33.92-5.81,2.41-1.48,1.48-2.4,3.54-2.4,5.81v6.24c0,4.54,3.68,8.22,8.22,8.22,2.26,0,4.33-.92,5.81-2.4,1.49-1.49,2.41-3.54,2.41-5.81v-6.24c0-4.55-3.69-8.23-8.23-8.23ZM357.5,397.86c-2.27,0-4.33.92-5.81,2.41-1.49,1.48-2.4,3.54-2.4,5.81v6.24c0,4.54,3.68,8.22,8.22,8.22,2.27,0,4.33-.92,5.81-2.4,1.49-1.49,2.4-3.54,2.4-5.81v-6.24c0-4.55-3.68-8.23-8.22-8.23ZM401.76,397.86c-2.26,0-4.33.92-5.81,2.41-1.48,1.48-2.4,3.54-2.4,5.81v6.24c0,4.54,3.68,8.22,8.22,8.22,2.26,0,4.33-.92,5.81-2.4,1.49-1.49,2.41-3.54,2.41-5.81v-6.24c0-4.55-3.69-8.23-8.23-8.23ZM357.5,397.86c-2.27,0-4.33.92-5.81,2.41-1.49,1.48-2.4,3.54-2.4,5.81v6.24c0,4.54,3.68,8.22,8.22,8.22,2.27,0,4.33-.92,5.81-2.4,1.49-1.49,2.4-3.54,2.4-5.81v-6.24c0-4.55-3.68-8.23-8.22-8.23ZM437.42,393.67c-.84-.17-1.52-.77-1.82-1.56-8.04-21.21-26.63-33.15-50.96-34.55v-6.83c0-1.61.5-3.2,1.56-4.41,1.39-1.58,2.23-3.68,2.23-5.96,0-4.94-3.93-8.95-8.77-8.95s-8.76,4.01-8.76,8.95c0,2.35.89,4.49,2.34,6.09,1.23,1.35,2,3.06,2,4.88v6.23c-23.15-.15-44.01,13.79-50.23,32.17-.67,1.95-2.17,3.46-4.07,4.27-.02,0-.04.02-.06.03-2.53,1.12-4.18,3.61-4.18,6.37v19.91c0,.93.18,1.87.66,2.67.87,1.46,2.27,2.43,3.51,3.04,1.6.79,2.87,2.17,3.55,3.83,6.57,16.12,23.28,25.64,55.25,25.47,47.26.54,54.56-23.58,55.5-28.04.09-.43.44-.77.88-.87.05-.02.09-.03.14-.04,4.29-1.12,7.21-5.09,7.21-9.52v-16.21c0-5.06-3.87-6.53-5.97-6.95ZM424.15,428.46c-7.33,12.28-24.13,17.1-41.01,16.74-19.46.23-32.73-1.41-42.1-9.96-3.55-3.23-6.07-7.42-7.55-11.98-3.02-9.34-2.35-18.76.79-28.74,2.87-9.12,9.28-16.79,17.89-20.96,13.32-6.47,28.71-5.8,28.71-5.8,21.49-.02,34.86,11.39,34.86,11.39,11.91,9.58,15.35,37.54,8.42,49.32ZM401.76,397.86c-2.26,0-4.33.92-5.81,2.41-1.48,1.48-2.4,3.54-2.4,5.81v6.24c0,4.54,3.68,8.22,8.22,8.22,2.26,0,4.33-.92,5.81-2.4,1.49-1.49,2.41-3.54,2.41-5.81v-6.24c0-4.55-3.69-8.23-8.23-8.23ZM357.5,397.86c-2.27,0-4.33.92-5.81,2.41-1.49,1.48-2.4,3.54-2.4,5.81v6.24c0,4.54,3.68,8.22,8.22,8.22,2.27,0,4.33-.92,5.81-2.4,1.49-1.49,2.4-3.54,2.4-5.81v-6.24c0-4.55-3.68-8.23-8.22-8.23ZM545.87,398.25c6.61-9.4,9.78-21.07,11.16-31.98,3.03-23.92-2.23-48.27-14.83-68.83-28.95-47.24-77.65-46.11-77.65-46.11,0,0-11.23-19.79-38.61-33.23-28.93-14.21-62.89-14.81-92.08-1.16-14.09,6.59-28.75,17.22-39.55,34.39,0,0-34.99-1.05-64.35,29.21-21.45,22.09-31.28,52.85-28.16,83.49,1.28,12.6,4.51,25.62,11.69,34.22,0,0-20.47,31.78-8.29,75.27,4.94,17.65,14.53,33.72,27.77,46.39,17.21,16.46,38.51,25.58,61.74,26,12.82,20.95,31.8,35.96,58.4,42.63,17.93,4.5,36.76,4.68,54.56-.33,40.14-11.32,57.49-42.3,57.49-42.3,72.79-6.83,89.43-72.2,89.43-72.2,11.44-44.42-8.71-75.46-8.71-75.46ZM305.75,291.59c3.92-25.37,19.18-42.01,42.16-50.59,10.2-3.81,21.06-5.59,31.95-5.39,19.61.36,37.54,6.6,52.32,18.15l-129.35,73.68c.43-12.23,1.03-24.79,2.92-35.85ZM231.79,323.54c14.36-37.87,50.49-44.13,50.49-44.13-1.17,3.56-2.14,7.76-2.97,12.38-1.04,5.8-1.53,11.69-1.54,17.58l.51,120.48c-8.32-4.49-17.56-13.53-22.8-19.07-2.51-2.64-5.15-5.15-7.88-7.54-12.25-10.74-17.41-26.17-19.56-38.26-2.48-13.9-1.25-28.24,3.76-41.44ZM269.2,513.68c-9.88-4.78-18.77-11.47-25.83-19.88-27.49-32.83-14.58-72.22-14.58-72.22l12.45,11.67c7.88,7.39,16.51,13.92,25.75,19.49,29.57,17.8,85.64,49.8,85.64,49.8-28.96,18.48-55.22,24.76-83.44,11.14ZM408.62,560.91c-14.02,4.93-29.14,5.71-43.73,2.98-12.71-2.38-28.79-7.53-38.93-18.71,8.17-2.64,17.14-7.03,26.6-12.5,1.73-1,3.48-1.98,5.23-2.92,21.48-11.58,99.34-58.47,99.34-58.47,3.93,44.25-13.12,77.18-48.51,89.62ZM457.69,442.97l-78.02,44.52-76.74-43.19v-87.15l77.73-44.7,77.04,44.1v86.42ZM476.93,518.37c1.61-5.18,2.96-11.03,4.12-17.39,1.36-7.41,2.02-14.95,2.02-22.49v-109.85c25.65,16.73,48.33,45.06,49.12,77.84,0,37.44-24.75,62.8-55.27,71.89ZM528.84,375.67s-14.53-18.95-37.1-30.61c-3.25-1.68-6.5-3.38-9.67-5.21l-75.16-43.27,24.35-13.2c8.6-4.61,18.2-7.11,27.95-7.02,12.04.11,25.71,2.9,42.89,14.04,24.5,19.07,37.04,52.89,26.74,85.27ZM370.89,340.35c0,2.35.89,4.49,2.34,6.09,1.23,1.35,2,3.06,2,4.88v6.23c-23.15-.15-44.01,13.79-50.23,32.17-.67,1.95-2.17,3.46-4.07,4.27-.02,0-.04.02-.06.03-2.53,1.12-4.18,3.61-4.18,6.37v19.91c0,.93.18,1.87.66,2.67.87,1.46,2.27,2.43,3.51,3.04,1.6.79,2.87,2.17,3.55,3.83,6.57,16.12,23.28,25.64,55.25,25.47,47.26.54,54.56-23.58,55.5-28.04.09-.43.44-.77.88-.87.05-.02.09-.03.14-.04,4.29-1.12,7.21-5.09,7.21-9.52v-16.21c0-5.06-3.87-6.53-5.97-6.95-.84-.17-1.52-.77-1.82-1.56-8.04-21.21-26.63-33.15-50.96-34.55v-6.83c0-1.61.5-3.2,1.56-4.41,1.39-1.58,2.23-3.68,2.23-5.96,0-4.94-3.93-8.95-8.77-8.95s-8.76,4.01-8.76,8.95ZM380.87,367.75c21.49-.02,34.86,11.39,34.86,11.39,11.91,9.58,15.35,37.54,8.42,49.32-7.33,12.28-24.13,17.1-41.01,16.74-19.46.23-32.73-1.41-42.1-9.96-3.55-3.23-6.07-7.42-7.55-11.98-3.02-9.34-2.35-18.76.79-28.74,2.87-9.12,9.28-16.79,17.89-20.96,13.32-6.47,28.71-5.8,28.71-5.8ZM401.76,420.54c2.26,0,4.33-.92,5.81-2.4,1.49-1.49,2.41-3.54,2.41-5.81v-6.24c0-4.55-3.69-8.23-8.23-8.23-2.26,0-4.33.92-5.81,2.41-1.48,1.48-2.4,3.54-2.4,5.81v6.24c0,4.54,3.68,8.22,8.22,8.22ZM349.28,406.08v6.24c0,4.54,3.68,8.22,8.22,8.22,2.27,0,4.33-.92,5.81-2.4,1.49-1.49,2.4-3.54,2.4-5.81v-6.24c0-4.55-3.68-8.23-8.22-8.23-2.27,0-4.33.92-5.81,2.41-1.49,1.48-2.4,3.54-2.4,5.81Z"/>
  <g>
    <g>
      <polygon class="cls-1" points="702.93 271.47 730.16 271.47 730.16 400.94 704.91 400.94 648.8 313.41 648.8 400.94 622.52 400.94 622.52 271.47 646.74 271.47 703.65 357.45 702.93 271.47"/>
      <path class="cls-1" d="M879.9,336.78c0,36.6-28.77,66.26-64.26,66.26s-64.26-29.67-64.26-66.26,28.77-66.26,64.26-66.26,64.26,29.67,64.26,66.26ZM815.47,293.94c-20.85,0-37.75,19.15-37.75,42.78s16.9,42.78,37.75,42.78,37.75-19.15,37.75-42.78-16.9-42.78-37.75-42.78Z"/>
      <path class="cls-1" d="M952.89,271.94c3.76,0,7.52.35,11.17,1.28,3.02.77,5.76,1.79,8.24,2.98,16.37,7.84,25.67,25.59,23.47,43.6-1.81,14.81-11.17,26.33-22.8,30.96l27.86,49.7h-29.12l-22.63-46.54h-21.53v46.54h-24.85v-128.53h50.2ZM927.22,295.68v37.2h24.3c10.27,0,18.6-8.33,18.6-18.6h0c0-10.27-8.33-18.6-18.6-18.6h-24.3Z"/>
      <path class="cls-1" d="M1023.93,400.47v-127.66h46.22c5.69,0,11.39.62,16.87,2.16,24.55,6.93,43.25,28.55,44.06,54.58,2.64,35.35-14.11,57.29-39.52,66.37-7.53,2.69-15.51,3.9-23.51,4l-44.13.54ZM1103.94,323.51c-6.68-24.94-26.29-29.81-56.27-27.83v82.07c27.07.56,46.95-.54,55.27-25.84,3.02-9.17,3.49-19.07.99-28.4Z"/>
      <rect class="cls-1" x="1155.94" y="271.94" width="25.01" height="128.53"/>
      <path class="cls-1" d="M1269.96,379.05c11.44-.9,22.14-6.86,28.44-16.73l20.42,12.66c-37.99,51.76-116.34,26.75-115.15-38.78-.45-18.07,4.89-31.3,11.72-40.76,10.63-14.71,27.69-23.21,45.79-24.43,40.04-2.71,56.37,25.94,56.37,25.94l-23.58,11.55s-15.27-20.4-38.89-12.07c-12.8,4.52-22.05,15.82-24.59,29.16-1.89,9.96-1.05,20.85,3.04,30.49,6.18,14.55,20.66,24.2,36.42,22.96Z"/>
    </g>
    <g>
      <path class="cls-1" d="M1442.04,272.1l49.27,127.85h-27.78l-9.02-25.88h-49.5l-9.5,25.88h-25.88l46.3-127.85h26.12ZM1429.69,302.97l-17.49,48.74h35.46l-17.97-48.74Z"/>
      <rect class="cls-1" x="1509.87" y="272.1" width="25.64" height="127.85"/>
    </g>
    <g>
      <g>
        <path class="cls-1" d="M1964.91,334.87c0,36.6-28.77,66.26-64.26,66.26s-64.26-29.67-64.26-66.26,28.77-66.26,64.26-66.26,64.26,29.67,64.26,66.26ZM1900.49,292.03c-20.85,0-37.75,19.15-37.75,42.78s16.9,42.78,37.75,42.78,37.75-19.15,37.75-42.78-16.9-42.78-37.75-42.78Z"/>
        <path class="cls-1" d="M1640.61,376.07c19.43,5.6,39.39-3.97,39.39-3.97v-21.68h-29.12v-22.48h51.92v55.72c-40.58,27.15-88.31,19.23-108.14-15.53-5.4-9.46-7.93-20.25-8.29-31.14-.43-13.29,2.21-23.96,6.32-32.55,7.46-15.59,21.68-26.77,38.25-31.66,50.36-14.85,71.85,24.77,71.85,24.77l-22.63,10.61s-13.45-23.1-41.07-13.73c-15.09,5.12-25.63,18.94-26.58,34.84-.42,7.05.57,14.26,2.92,21.63,3.83,11.98,13.09,21.7,25.18,25.18Z"/>
        <path class="cls-1" d="M1729.39,398.14v-126.55h51.84c21.2,0,38.38,17.19,38.38,38.38v2.93s.83,26.12-21.61,34.43l27.3,50.81h-27.7l-23.27-48.99h-20.89v48.99h-24.06ZM1753.76,294.23v35.93h21.9c9.91,0,17.95-8.03,17.95-17.95v-2.12c0-8.76-7.1-15.87-15.87-15.87h-23.98Z"/>
        <path class="cls-1" d="M1985.33,271.59v83.1c0,24.74,20.06,44.79,44.79,44.79h11.71c24.74,0,44.79-20.06,44.79-44.79v-83.1h-25.33v80.47c0,14.1-11.43,25.52-25.52,25.52h0c-14.1,0-25.52-11.43-25.52-25.52v-80.47s-24.93,0-24.93,0Z"/>
        <path class="cls-1" d="M2138.55,354.69v43.45h-24.53v-126.55h46.26c8.49,0,16.9,2.31,23.95,7.03,8.55,5.73,17.15,15.88,17.39,33.57,0,0,2.93,32.69-29.09,40.78-3.92.99-7.96,1.4-12.01,1.45l-21.98.27ZM2138.71,293.91v39.73h17.97c11.58,0,20.97-9.39,20.97-20.97h0c0-10.36-8.4-18.76-18.76-18.76h-20.18Z"/>
      </g>
      <g>
        <path class="cls-1" d="M2321.05,271.59l46.85,126.55h-25.8l-10.13-28.57h-49.07l-10.92,28.57h-25.33l46.85-126.55h27.54ZM2307.28,299.92l-18.2,49.86h35.93l-17.73-49.86Z"/>
        <path class="cls-1" d="M2378.67,429.08v-123.94h20.58v6.65s10.94-8.38,26.94-7.92c15.35.44,28.62,10.39,34.43,24.61,2.54,6.22,4.39,13.89,3.99,22.72-.8,25.51-10.79,41.37-29.53,46.33-6.09,1.61-12.48,1.66-18.68.56-5.21-.93-11.78-2.49-14.79-4.79v35.77h-22.95ZM2403.6,377.32c4.09,2.7,9.08,3.92,14.86,3.87,9.97-.1,19.03-6.28,22.18-15.73,2.67-8,2.31-17.87-.68-27.05-4.01-12.32-17.15-19-29.16-14.13-3.07,1.25-5.59,2.85-7.28,4.08-1.47,1.07-2.33,2.79-2.33,4.62v39.66c0,1.86.86,3.66,2.41,4.68Z"/>
        <path class="cls-1" d="M2524.61,322.68c8.56,1.95,15.34,4.86,20.39,7.64,12.49,6.88,20.39,20.25,19.2,34.47-1.08,12.84-8.96,24.7-22.5,30.43-2.44,1.03-5.01,1.74-7.61,2.28-28.04,5.91-52.46-3.29-64.25-21.04l20.02-13.69c1.28,1.83,2.68,3.5,4.21,5.03,7.33,7.33,17.57,10.95,27.9,10.14,3.31-.26,6.01-.98,8.2-1.99,10.79-4.97,11.29-19.88,1.3-26.31-7.85-5.05-18.46-7.05-18.46-7.05-12.85-2.95-19.16-6.63-24.23-11.17-7.39-6.59-13.23-19.81-12.36-29.68.79-8.94,4.61-15.46,8.87-20.04,5.53-5.95,13.04-9.64,21.03-11.08,34.46-6.2,52.75,16.64,52.75,16.64l-15.31,14.48s-12.79-14.22-30.37-10.45c-6.06,1.3-11.15,5.76-12.51,11.81-2.09,9.35,6.04,15.18,23.73,19.57Z"/>
      </g>
    </g>
  </g>
  <g>
    <g>
      <path class="cls-1" d="M978.22,460.04l26.54,68.63h-12.68l-4.9-16.56h-28.73l-6.59,16.56h-11.66l25.69-68.63h12.34ZM971.45,473.56l-10.99,30.59h22.31l-11.32-30.59Z"/>
      <path class="cls-1" d="M1032.36,460.04v44.99c0,13.05,10.58,23.64,23.64,23.64h5.47c13.05,0,23.64-10.58,23.64-23.64v-44.99h-11.72v45.58c0,8.15-6.61,14.76-14.76,14.76h0c-8.15,0-14.76-6.61-14.76-14.76v-45.58h-11.49Z"/>
      <polygon class="cls-1" points="1165.84 460.04 1165.84 471.02 1146.23 471.02 1146.23 528.66 1135.69 528.66 1135.69 471.02 1116.83 471.02 1116.83 460.04 1165.84 460.04"/>
      <polygon class="cls-1" points="1527.38 460.35 1527.38 471.33 1507.78 471.33 1507.78 528.97 1497.24 528.97 1497.24 471.33 1478.37 471.33 1478.37 460.35 1527.38 460.35"/>
      <path class="cls-1" d="M1261.56,494.66c0,19.34-15.97,35.02-35.66,35.02s-35.66-15.68-35.66-35.02,15.97-35.02,35.66-35.02,35.66,15.68,35.66,35.02ZM1226.04,469.5c-12.9,0-23.35,11.24-23.35,25.1s10.46,25.1,23.35,25.1,23.35-11.24,23.35-25.1-10.46-25.1-23.35-25.1Z"/>
      <polygon class="cls-1" points="1292.89 459.64 1292.89 529.68 1303.71 529.68 1303.71 483.87 1323.54 519.7 1331.65 519.7 1350.92 482.52 1350.92 529.68 1361.91 529.68 1361.91 459.64 1348.39 459.64 1328.1 504.66 1307.14 459.64 1292.89 459.64"/>
      <path class="cls-1" d="M1432.73,459.64l26.37,70.03h-13.02l-5.58-17.24h-27.89l-6.42,17.24h-11.83l25.69-70.03h12.68ZM1425.63,474.57l-10.65,29.75h22.82l-12.17-29.75Z"/>
      <polygon class="cls-1" points="1569.98 469.45 1569.98 488.86 1596.69 488.86 1596.69 497.95 1569.98 497.95 1569.98 519.45 1600.33 519.45 1600.33 528.55 1558.6 528.55 1558.6 460.36 1600.52 460.36 1600.52 469.45 1569.98 469.45"/>
    </g>
    <g>
      <polygon class="cls-1" points="2083.99 460.04 2083.99 471.02 2064.39 471.02 2064.39 528.66 2053.85 528.66 2053.85 471.02 2034.98 471.02 2034.98 460.04 2083.99 460.04"/>
      <polygon class="cls-1" points="1758.96 459.64 1758.96 529.68 1769.77 529.68 1769.77 483.87 1789.61 519.7 1797.72 519.7 1816.99 482.52 1816.99 529.68 1827.98 529.68 1827.98 459.64 1814.45 459.64 1794.17 504.66 1773.21 459.64 1758.96 459.64"/>
      <path class="cls-1" d="M1898.91,459.64l26.37,70.03h-13.02l-5.58-17.24h-27.89l-6.42,17.24h-11.83l25.69-70.03h12.68ZM1891.81,474.57l-10.65,29.75h22.82l-12.17-29.75Z"/>
      <polygon class="cls-1" points="2127.1 469.45 2127.1 488.86 2153.81 488.86 2153.81 497.95 2127.1 497.95 2127.1 519.45 2157.45 519.45 2157.45 528.55 2115.72 528.55 2115.72 460.36 2157.64 460.36 2157.64 469.45 2127.1 469.45"/>
      <path class="cls-1" d="M1676.81,517.79c9.58,11.9,28.13,15.4,40.86,7.17,6.22-4.02,9.65-11.3,7.92-18.49-2.25-9.36-10.96-13.52-15.93-15.16-1.73-.57-3.53-.89-5.34-1.13-9.4-1.24-12.56-5.74-13.44-9.72-.93-4.21,1.29-8.52,5.08-10.58,11.38-6.17,22.78,6.04,22.78,6.04l6.65-6.25s-6.09-10.91-27.1-9.29c-6.63.51-12.9,3.9-16.26,9.64-2.08,3.55-3.26,8.09-1.49,13.41,1.74,5.22,5.88,9.29,10.94,11.44l16.62,7.04c4.02,1.7,6.89,5.53,6.97,9.89.07,4-1.9,8.14-10.07,8.7,0,0-12.37,1.75-19.47-8.82l-8.7,6.11Z"/>
      <path class="cls-1" d="M1966.75,529.68h-12.62v-69.63h27.63c2.75,0,5.52.3,8.14,1.15,8.39,2.73,14.26,9.42,14.26,18.43v3.6c0,4.17-1.36,8.29-4.14,11.4-2.11,2.36-5.19,4.49-9.61,5.03l17.35,30.03h-13.52l-13.97-27.89h-14.2l.68,27.89ZM1965.96,468.66v25.47h13.9c7.03,0,12.73-5.7,12.73-12.73h0c0-7.03-5.7-12.73-12.73-12.73h-13.9Z"/>
      <path class="cls-1" d="M2205.64,529.68h-12.62v-69.63h27.63c2.75,0,5.52.3,8.14,1.15,8.39,2.73,14.26,9.42,14.26,18.43v3.6c0,4.17-1.36,8.29-4.14,11.4-2.11,2.36-5.19,4.49-9.61,5.03l17.35,30.03h-13.52l-13.97-27.89h-14.2l.68,27.89ZM2204.85,468.66v25.47h13.9c7.03,0,12.73-5.7,12.73-12.73h0c0-7.03-5.7-12.73-12.73-12.73h-13.9Z"/>
    </g>
  </g>
</svg>